<mxfile host="app.diagrams.net" modified="2023-09-16T15:04:12.896Z" agent="Mozilla/5.0 (Windows NT 10.0; Win64; x64) AppleWebKit/537.36 (KHTML, like Gecko) Chrome/117.0.0.0 Safari/537.36 Edg/117.0.2045.31" etag="7aNRG8B85gNx4XduYtFi" version="21.7.5" type="github">
  <diagram name="Page-1" id="e7e014a7-5840-1c2e-5031-d8a46d1fe8dd">
    <mxGraphModel dx="1303" dy="711" grid="1" gridSize="10" guides="1" tooltips="1" connect="1" arrows="1" fold="1" page="1" pageScale="1" pageWidth="1169" pageHeight="826" background="none" math="0" shadow="0">
      <root>
        <mxCell id="0" />
        <mxCell id="1" parent="0" />
        <mxCell id="teM7XHH-97t1f9MhzUma-80" value="ITunesApp" style="swimlane;fontStyle=1;align=center;verticalAlign=top;childLayout=stackLayout;horizontal=1;startSize=26;horizontalStack=0;resizeParent=1;resizeParentMax=0;resizeLast=0;collapsible=1;marginBottom=0;whiteSpace=wrap;html=1;labelBackgroundColor=none;rounded=1;" parent="1" vertex="1">
          <mxGeometry x="447" y="134" width="200" height="164" as="geometry" />
        </mxCell>
        <mxCell id="teM7XHH-97t1f9MhzUma-81" value="+ isPlaying: boolean" style="text;strokeColor=none;fillColor=none;align=left;verticalAlign=top;spacingLeft=4;spacingRight=4;overflow=hidden;rotatable=0;points=[[0,0.5],[1,0.5]];portConstraint=eastwest;whiteSpace=wrap;html=1;labelBackgroundColor=none;rounded=1;" parent="teM7XHH-97t1f9MhzUma-80" vertex="1">
          <mxGeometry y="26" width="200" height="26" as="geometry" />
        </mxCell>
        <mxCell id="teM7XHH-97t1f9MhzUma-83" value="+ playingNow: Music" style="text;strokeColor=none;fillColor=none;align=left;verticalAlign=top;spacingLeft=4;spacingRight=4;overflow=hidden;rotatable=0;points=[[0,0.5],[1,0.5]];portConstraint=eastwest;whiteSpace=wrap;html=1;labelBackgroundColor=none;rounded=1;" parent="teM7XHH-97t1f9MhzUma-80" vertex="1">
          <mxGeometry y="52" width="200" height="26" as="geometry" />
        </mxCell>
        <mxCell id="teM7XHH-97t1f9MhzUma-84" value="" style="line;strokeWidth=1;fillColor=none;align=left;verticalAlign=middle;spacingTop=-1;spacingLeft=3;spacingRight=3;rotatable=0;labelPosition=right;points=[];portConstraint=eastwest;labelBackgroundColor=none;rounded=1;" parent="teM7XHH-97t1f9MhzUma-80" vertex="1">
          <mxGeometry y="78" width="200" height="8" as="geometry" />
        </mxCell>
        <mxCell id="teM7XHH-97t1f9MhzUma-85" value="+ play(Music): void" style="text;strokeColor=none;fillColor=none;align=left;verticalAlign=top;spacingLeft=4;spacingRight=4;overflow=hidden;rotatable=0;points=[[0,0.5],[1,0.5]];portConstraint=eastwest;whiteSpace=wrap;html=1;labelBackgroundColor=none;rounded=1;" parent="teM7XHH-97t1f9MhzUma-80" vertex="1">
          <mxGeometry y="86" width="200" height="26" as="geometry" />
        </mxCell>
        <mxCell id="teM7XHH-97t1f9MhzUma-89" value="+ pause(): void" style="text;strokeColor=none;fillColor=none;align=left;verticalAlign=top;spacingLeft=4;spacingRight=4;overflow=hidden;rotatable=0;points=[[0,0.5],[1,0.5]];portConstraint=eastwest;whiteSpace=wrap;html=1;labelBackgroundColor=none;rounded=1;" parent="teM7XHH-97t1f9MhzUma-80" vertex="1">
          <mxGeometry y="112" width="200" height="26" as="geometry" />
        </mxCell>
        <mxCell id="teM7XHH-97t1f9MhzUma-86" value="+ selectMusic(Music): Musica" style="text;strokeColor=none;fillColor=none;align=left;verticalAlign=top;spacingLeft=4;spacingRight=4;overflow=hidden;rotatable=0;points=[[0,0.5],[1,0.5]];portConstraint=eastwest;whiteSpace=wrap;html=1;labelBackgroundColor=none;rounded=1;" parent="teM7XHH-97t1f9MhzUma-80" vertex="1">
          <mxGeometry y="138" width="200" height="26" as="geometry" />
        </mxCell>
        <mxCell id="teM7XHH-97t1f9MhzUma-90" value="Music" style="swimlane;fontStyle=1;align=center;verticalAlign=top;childLayout=stackLayout;horizontal=1;startSize=26;horizontalStack=0;resizeParent=1;resizeParentMax=0;resizeLast=0;collapsible=1;marginBottom=0;whiteSpace=wrap;html=1;labelBackgroundColor=none;rounded=1;" parent="1" vertex="1">
          <mxGeometry x="730" y="164" width="200" height="104" as="geometry" />
        </mxCell>
        <mxCell id="teM7XHH-97t1f9MhzUma-91" value="# title: String" style="text;strokeColor=none;fillColor=none;align=left;verticalAlign=top;spacingLeft=4;spacingRight=4;overflow=hidden;rotatable=0;points=[[0,0.5],[1,0.5]];portConstraint=eastwest;whiteSpace=wrap;html=1;labelBackgroundColor=none;rounded=1;" parent="teM7XHH-97t1f9MhzUma-90" vertex="1">
          <mxGeometry y="26" width="200" height="26" as="geometry" />
        </mxCell>
        <mxCell id="3n0DOCUMOn8flBIRhYVH-13" value="# artist: String" style="text;strokeColor=none;fillColor=none;align=left;verticalAlign=top;spacingLeft=4;spacingRight=4;overflow=hidden;rotatable=0;points=[[0,0.5],[1,0.5]];portConstraint=eastwest;whiteSpace=wrap;html=1;labelBackgroundColor=none;rounded=1;" parent="teM7XHH-97t1f9MhzUma-90" vertex="1">
          <mxGeometry y="52" width="200" height="26" as="geometry" />
        </mxCell>
        <mxCell id="3n0DOCUMOn8flBIRhYVH-14" value="# album: String" style="text;strokeColor=none;fillColor=none;align=left;verticalAlign=top;spacingLeft=4;spacingRight=4;overflow=hidden;rotatable=0;points=[[0,0.5],[1,0.5]];portConstraint=eastwest;whiteSpace=wrap;html=1;labelBackgroundColor=none;rounded=1;" parent="teM7XHH-97t1f9MhzUma-90" vertex="1">
          <mxGeometry y="78" width="200" height="26" as="geometry" />
        </mxCell>
        <mxCell id="teM7XHH-97t1f9MhzUma-97" style="edgeStyle=orthogonalEdgeStyle;rounded=1;orthogonalLoop=1;jettySize=auto;html=1;entryX=0;entryY=0;entryDx=0;entryDy=0;labelBackgroundColor=none;fontColor=default;exitX=1;exitY=0.25;exitDx=0;exitDy=0;" parent="1" source="teM7XHH-97t1f9MhzUma-80" target="teM7XHH-97t1f9MhzUma-90" edge="1">
          <mxGeometry relative="1" as="geometry">
            <Array as="points">
              <mxPoint x="730" y="175" />
            </Array>
          </mxGeometry>
        </mxCell>
        <mxCell id="teM7XHH-97t1f9MhzUma-98" value="PhoneApp" style="swimlane;fontStyle=1;align=center;verticalAlign=top;childLayout=stackLayout;horizontal=1;startSize=26;horizontalStack=0;resizeParent=1;resizeParentMax=0;resizeLast=0;collapsible=1;marginBottom=0;whiteSpace=wrap;html=1;labelBackgroundColor=none;rounded=1;" parent="1" vertex="1">
          <mxGeometry x="447" y="373" width="223" height="164" as="geometry" />
        </mxCell>
        <mxCell id="teM7XHH-97t1f9MhzUma-99" value="+ isCalling: boolean" style="text;strokeColor=none;fillColor=none;align=left;verticalAlign=top;spacingLeft=4;spacingRight=4;overflow=hidden;rotatable=0;points=[[0,0.5],[1,0.5]];portConstraint=eastwest;whiteSpace=wrap;html=1;labelBackgroundColor=none;rounded=1;" parent="teM7XHH-97t1f9MhzUma-98" vertex="1">
          <mxGeometry y="26" width="223" height="26" as="geometry" />
        </mxCell>
        <mxCell id="teM7XHH-97t1f9MhzUma-100" value="- caller: Contact" style="text;strokeColor=none;fillColor=none;align=left;verticalAlign=top;spacingLeft=4;spacingRight=4;overflow=hidden;rotatable=0;points=[[0,0.5],[1,0.5]];portConstraint=eastwest;whiteSpace=wrap;html=1;labelBackgroundColor=none;rounded=1;" parent="teM7XHH-97t1f9MhzUma-98" vertex="1">
          <mxGeometry y="52" width="223" height="26" as="geometry" />
        </mxCell>
        <mxCell id="teM7XHH-97t1f9MhzUma-101" value="" style="line;strokeWidth=1;fillColor=none;align=left;verticalAlign=middle;spacingTop=-1;spacingLeft=3;spacingRight=3;rotatable=0;labelPosition=right;points=[];portConstraint=eastwest;labelBackgroundColor=none;rounded=1;" parent="teM7XHH-97t1f9MhzUma-98" vertex="1">
          <mxGeometry y="78" width="223" height="8" as="geometry" />
        </mxCell>
        <mxCell id="3n0DOCUMOn8flBIRhYVH-10" value="+ call(): void" style="text;strokeColor=none;fillColor=none;align=left;verticalAlign=top;spacingLeft=4;spacingRight=4;overflow=hidden;rotatable=0;points=[[0,0.5],[1,0.5]];portConstraint=eastwest;whiteSpace=wrap;html=1;labelBackgroundColor=none;rounded=1;" parent="teM7XHH-97t1f9MhzUma-98" vertex="1">
          <mxGeometry y="86" width="223" height="26" as="geometry" />
        </mxCell>
        <mxCell id="teM7XHH-97t1f9MhzUma-103" value="+ answer(): void" style="text;strokeColor=none;fillColor=none;align=left;verticalAlign=top;spacingLeft=4;spacingRight=4;overflow=hidden;rotatable=0;points=[[0,0.5],[1,0.5]];portConstraint=eastwest;whiteSpace=wrap;html=1;labelBackgroundColor=none;rounded=1;" parent="teM7XHH-97t1f9MhzUma-98" vertex="1">
          <mxGeometry y="112" width="223" height="26" as="geometry" />
        </mxCell>
        <mxCell id="teM7XHH-97t1f9MhzUma-104" value="+ voiceMail(): void" style="text;strokeColor=none;fillColor=none;align=left;verticalAlign=top;spacingLeft=4;spacingRight=4;overflow=hidden;rotatable=0;points=[[0,0.5],[1,0.5]];portConstraint=eastwest;whiteSpace=wrap;html=1;labelBackgroundColor=none;rounded=1;" parent="teM7XHH-97t1f9MhzUma-98" vertex="1">
          <mxGeometry y="138" width="223" height="26" as="geometry" />
        </mxCell>
        <mxCell id="teM7XHH-97t1f9MhzUma-106" value="Contact" style="swimlane;fontStyle=1;align=center;verticalAlign=top;childLayout=stackLayout;horizontal=1;startSize=26;horizontalStack=0;resizeParent=1;resizeParentMax=0;resizeLast=0;collapsible=1;marginBottom=0;whiteSpace=wrap;html=1;labelBackgroundColor=none;rounded=1;" parent="1" vertex="1">
          <mxGeometry x="715" y="416" width="230" height="78" as="geometry" />
        </mxCell>
        <mxCell id="teM7XHH-97t1f9MhzUma-107" value="# name: String" style="text;strokeColor=none;fillColor=none;align=left;verticalAlign=top;spacingLeft=4;spacingRight=4;overflow=hidden;rotatable=0;points=[[0,0.5],[1,0.5]];portConstraint=eastwest;whiteSpace=wrap;html=1;labelBackgroundColor=none;rounded=1;" parent="teM7XHH-97t1f9MhzUma-106" vertex="1">
          <mxGeometry y="26" width="230" height="26" as="geometry" />
        </mxCell>
        <mxCell id="teM7XHH-97t1f9MhzUma-108" value="# phoneNumber : String" style="text;strokeColor=none;fillColor=none;align=left;verticalAlign=top;spacingLeft=4;spacingRight=4;overflow=hidden;rotatable=0;points=[[0,0.5],[1,0.5]];portConstraint=eastwest;whiteSpace=wrap;html=1;labelBackgroundColor=none;rounded=1;" parent="teM7XHH-97t1f9MhzUma-106" vertex="1">
          <mxGeometry y="52" width="230" height="26" as="geometry" />
        </mxCell>
        <mxCell id="teM7XHH-97t1f9MhzUma-113" value="" style="edgeStyle=orthogonalEdgeStyle;rounded=1;orthogonalLoop=1;jettySize=auto;html=1;entryX=0.013;entryY=-0.013;entryDx=0;entryDy=0;entryPerimeter=0;labelBackgroundColor=none;fontColor=default;exitX=1;exitY=0.5;exitDx=0;exitDy=0;" parent="1" source="teM7XHH-97t1f9MhzUma-99" target="teM7XHH-97t1f9MhzUma-106" edge="1">
          <mxGeometry relative="1" as="geometry">
            <Array as="points">
              <mxPoint x="670" y="410" />
              <mxPoint x="672" y="410" />
              <mxPoint x="672" y="420" />
              <mxPoint x="718" y="420" />
            </Array>
          </mxGeometry>
        </mxCell>
        <mxCell id="teM7XHH-97t1f9MhzUma-115" value="InternetNavigator" style="swimlane;fontStyle=1;align=center;verticalAlign=top;childLayout=stackLayout;horizontal=1;startSize=26;horizontalStack=0;resizeParent=1;resizeParentMax=0;resizeLast=0;collapsible=1;marginBottom=0;whiteSpace=wrap;html=1;labelBackgroundColor=none;rounded=1;" parent="1" vertex="1">
          <mxGeometry x="447" y="620" width="200" height="138" as="geometry" />
        </mxCell>
        <mxCell id="teM7XHH-97t1f9MhzUma-116" value="+ tabs: InternetPage[]" style="text;strokeColor=none;fillColor=none;align=left;verticalAlign=top;spacingLeft=4;spacingRight=4;overflow=hidden;rotatable=0;points=[[0,0.5],[1,0.5]];portConstraint=eastwest;whiteSpace=wrap;html=1;labelBackgroundColor=none;rounded=1;" parent="teM7XHH-97t1f9MhzUma-115" vertex="1">
          <mxGeometry y="26" width="200" height="26" as="geometry" />
        </mxCell>
        <mxCell id="teM7XHH-97t1f9MhzUma-118" value="" style="line;strokeWidth=1;fillColor=none;align=left;verticalAlign=middle;spacingTop=-1;spacingLeft=3;spacingRight=3;rotatable=0;labelPosition=right;points=[];portConstraint=eastwest;labelBackgroundColor=none;rounded=1;" parent="teM7XHH-97t1f9MhzUma-115" vertex="1">
          <mxGeometry y="52" width="200" height="8" as="geometry" />
        </mxCell>
        <mxCell id="teM7XHH-97t1f9MhzUma-119" value="+ viewInternetPage(URI): void" style="text;strokeColor=none;fillColor=none;align=left;verticalAlign=top;spacingLeft=4;spacingRight=4;overflow=hidden;rotatable=0;points=[[0,0.5],[1,0.5]];portConstraint=eastwest;whiteSpace=wrap;html=1;labelBackgroundColor=none;rounded=1;" parent="teM7XHH-97t1f9MhzUma-115" vertex="1">
          <mxGeometry y="60" width="200" height="26" as="geometry" />
        </mxCell>
        <mxCell id="teM7XHH-97t1f9MhzUma-120" value="+ addNewTab(URI): void" style="text;strokeColor=none;fillColor=none;align=left;verticalAlign=top;spacingLeft=4;spacingRight=4;overflow=hidden;rotatable=0;points=[[0,0.5],[1,0.5]];portConstraint=eastwest;whiteSpace=wrap;html=1;labelBackgroundColor=none;rounded=1;" parent="teM7XHH-97t1f9MhzUma-115" vertex="1">
          <mxGeometry y="86" width="200" height="26" as="geometry" />
        </mxCell>
        <mxCell id="teM7XHH-97t1f9MhzUma-121" value="+ refreshInternetPage(URI): void" style="text;strokeColor=none;fillColor=none;align=left;verticalAlign=top;spacingLeft=4;spacingRight=4;overflow=hidden;rotatable=0;points=[[0,0.5],[1,0.5]];portConstraint=eastwest;whiteSpace=wrap;html=1;labelBackgroundColor=none;rounded=1;" parent="teM7XHH-97t1f9MhzUma-115" vertex="1">
          <mxGeometry y="112" width="200" height="26" as="geometry" />
        </mxCell>
        <mxCell id="teM7XHH-97t1f9MhzUma-122" value="InternetPage" style="swimlane;fontStyle=1;align=center;verticalAlign=top;childLayout=stackLayout;horizontal=1;startSize=26;horizontalStack=0;resizeParent=1;resizeParentMax=0;resizeLast=0;collapsible=1;marginBottom=0;whiteSpace=wrap;html=1;labelBackgroundColor=none;rounded=1;" parent="1" vertex="1">
          <mxGeometry x="730" y="650" width="200" height="78" as="geometry" />
        </mxCell>
        <mxCell id="teM7XHH-97t1f9MhzUma-123" value="+ URI: string" style="text;strokeColor=none;fillColor=none;align=left;verticalAlign=top;spacingLeft=4;spacingRight=4;overflow=hidden;rotatable=0;points=[[0,0.5],[1,0.5]];portConstraint=eastwest;whiteSpace=wrap;html=1;labelBackgroundColor=none;rounded=1;" parent="teM7XHH-97t1f9MhzUma-122" vertex="1">
          <mxGeometry y="26" width="200" height="26" as="geometry" />
        </mxCell>
        <mxCell id="teM7XHH-97t1f9MhzUma-124" value="- isLoaded: boolean" style="text;strokeColor=none;fillColor=none;align=left;verticalAlign=top;spacingLeft=4;spacingRight=4;overflow=hidden;rotatable=0;points=[[0,0.5],[1,0.5]];portConstraint=eastwest;whiteSpace=wrap;html=1;labelBackgroundColor=none;rounded=1;" parent="teM7XHH-97t1f9MhzUma-122" vertex="1">
          <mxGeometry y="52" width="200" height="26" as="geometry" />
        </mxCell>
        <mxCell id="3n0DOCUMOn8flBIRhYVH-2" value="" style="edgeStyle=orthogonalEdgeStyle;rounded=1;orthogonalLoop=1;jettySize=auto;html=1;entryX=0;entryY=0;entryDx=0;entryDy=0;labelBackgroundColor=none;fontColor=default;exitX=1;exitY=0.5;exitDx=0;exitDy=0;" parent="1" source="teM7XHH-97t1f9MhzUma-116" target="teM7XHH-97t1f9MhzUma-122" edge="1">
          <mxGeometry relative="1" as="geometry">
            <Array as="points">
              <mxPoint x="730" y="659" />
            </Array>
          </mxGeometry>
        </mxCell>
        <mxCell id="3n0DOCUMOn8flBIRhYVH-6" style="edgeStyle=orthogonalEdgeStyle;rounded=1;orthogonalLoop=1;jettySize=auto;html=1;entryX=0;entryY=0;entryDx=0;entryDy=0;labelBackgroundColor=none;fontColor=default;" parent="1" source="3n0DOCUMOn8flBIRhYVH-5" edge="1">
          <mxGeometry relative="1" as="geometry">
            <mxPoint x="282" y="395" as="sourcePoint" />
            <mxPoint x="447" y="144" as="targetPoint" />
            <Array as="points">
              <mxPoint x="282" y="130" />
              <mxPoint x="447" y="130" />
            </Array>
          </mxGeometry>
        </mxCell>
        <mxCell id="3n0DOCUMOn8flBIRhYVH-7" style="edgeStyle=orthogonalEdgeStyle;rounded=1;orthogonalLoop=1;jettySize=auto;html=1;entryX=0;entryY=0;entryDx=0;entryDy=0;exitX=1;exitY=0.5;exitDx=0;exitDy=0;labelBackgroundColor=none;fontColor=default;" parent="1" source="3n0DOCUMOn8flBIRhYVH-5" target="teM7XHH-97t1f9MhzUma-115" edge="1">
          <mxGeometry relative="1" as="geometry">
            <mxPoint x="282" y="474" as="sourcePoint" />
            <mxPoint x="447" y="563" as="targetPoint" />
            <Array as="points">
              <mxPoint x="282" y="413" />
              <mxPoint x="282" y="610" />
              <mxPoint x="447" y="610" />
            </Array>
          </mxGeometry>
        </mxCell>
        <mxCell id="3n0DOCUMOn8flBIRhYVH-8" style="edgeStyle=orthogonalEdgeStyle;rounded=1;orthogonalLoop=1;jettySize=auto;html=1;exitX=1;exitY=0.5;exitDx=0;exitDy=0;labelBackgroundColor=none;fontColor=default;entryX=0.001;entryY=-0.006;entryDx=0;entryDy=0;entryPerimeter=0;" parent="1" source="3n0DOCUMOn8flBIRhYVH-5" target="teM7XHH-97t1f9MhzUma-98" edge="1">
          <mxGeometry relative="1" as="geometry">
            <mxPoint x="282" y="423" as="sourcePoint" />
            <mxPoint x="447" y="380" as="targetPoint" />
            <Array as="points">
              <mxPoint x="447" y="413" />
            </Array>
          </mxGeometry>
        </mxCell>
        <mxCell id="3n0DOCUMOn8flBIRhYVH-5" value="Home" style="ellipse;whiteSpace=wrap;html=1;aspect=fixed;rounded=1;labelBackgroundColor=none;" parent="1" vertex="1">
          <mxGeometry x="120" y="373" width="80" height="80" as="geometry" />
        </mxCell>
      </root>
    </mxGraphModel>
  </diagram>
</mxfile>
